<svg version="1.1" id="Layer_1" xmlns="http://www.w3.org/2000/svg" xmlns:xlink="http://www.w3.org/1999/xlink" x="0px" y="0px"
	 width="100%" viewBox="0 0 512 512" enable-background="new 0 0 512 512" xml:space="preserve">
<path fill="#000000" opacity="1.000000" stroke="none" 
	d="
M339.000000,513.000000 
	C226.027451,513.000000 113.554893,513.000000 1.041169,513.000000 
	C1.041169,342.402435 1.041169,171.804840 1.041169,1.103623 
	C171.555893,1.103623 342.111877,1.103623 512.833923,1.103623 
	C512.833923,171.666534 512.833923,342.333252 512.833923,513.000000 
	C455.138153,513.000000 397.319061,513.000000 339.000000,513.000000 
M190.605576,263.163879 
	C176.764648,258.032623 170.079651,247.630356 168.772568,233.304993 
	C158.240997,233.304993 147.834885,233.304993 137.268127,233.304993 
	C137.680283,236.927750 137.867691,240.264496 138.460175,243.527664 
	C146.328979,286.866272 170.336670,317.615845 210.592789,335.547180 
	C215.156113,337.579834 217.235474,340.622833 217.041794,345.594025 
	C216.843918,350.672913 216.998016,355.765533 216.998016,360.651245 
	C228.074722,360.651245 238.470322,360.651245 249.001801,360.651245 
	C249.001801,342.326782 248.991943,324.352386 249.005890,306.377991 
	C249.012985,297.236511 252.500076,294.525391 261.576447,296.546936 
	C268.187347,298.019379 274.892487,295.368317 278.583405,289.822723 
	C282.082214,284.565735 282.008850,277.126099 278.407104,271.942932 
	C274.689819,266.593506 268.119965,263.996094 261.777344,265.368347 
	C252.117050,267.458405 249.008377,264.898102 249.002533,254.838104 
	C248.998337,247.591965 249.001724,240.345825 249.001724,233.167740 
	C243.312317,233.167740 238.346359,233.167740 233.412338,233.167740 
	C229.440872,257.375519 213.379730,268.889008 190.605576,263.163879 
M264.998413,331.500671 
	C264.998413,341.256836 264.998413,351.012970 264.998413,360.659424 
	C276.029358,360.659424 286.421875,360.659424 297.001678,360.659424 
	C297.001678,355.835327 297.273376,351.331543 296.935181,346.873962 
	C296.478638,340.856262 298.888611,337.362061 304.510468,335.026917 
	C324.001160,326.930969 340.017151,314.167175 352.717010,297.365540 
	C366.993713,278.477722 374.920227,257.153931 376.706024,232.998230 
	C363.740967,232.998230 351.119507,233.008286 338.498047,232.994888 
	C329.266357,232.985092 326.487152,229.502319 328.504547,220.524231 
	C330.005615,213.844009 327.445099,207.218399 321.914856,203.472458 
	C316.686615,199.931091 309.236816,199.946640 304.024567,203.509811 
	C298.503693,207.283951 295.983490,213.883789 297.504364,220.584854 
	C299.528534,229.503525 296.714630,232.981186 287.438538,232.995865 
	C280.017975,233.007614 272.597382,232.998245 265.326843,232.998245 
	C265.326843,238.754593 265.326843,243.825073 265.326843,248.847168 
	C283.499939,250.652603 295.944824,262.542450 296.922119,278.818756 
	C297.399292,286.765564 295.233887,293.956696 290.427124,300.317596 
	C284.117828,308.666779 275.379395,312.431274 264.998413,313.235260 
	C264.998413,319.210693 264.998413,324.856018 264.998413,331.500671 
M329.008148,151.259338 
	C329.783478,151.838745 330.541626,152.890381 331.337006,152.919296 
	C335.800751,153.081680 340.273438,152.997543 344.681519,152.997543 
	C347.305542,133.118347 359.691864,121.002037 377.012939,121.008636 
	C394.289246,121.015228 406.524261,132.989517 409.347961,153.001312 
	C418.755249,153.001312 428.224945,153.011475 437.694550,152.985886 
	C438.660431,152.983276 439.625732,152.765991 440.581177,152.649567 
	C435.938873,86.264374 380.041901,43.127998 328.997955,41.765362 
	C328.997955,43.079254 328.997986,44.385845 328.997986,45.692436 
	C328.997955,57.022789 329.011230,68.353165 328.993530,79.683487 
	C328.979584,88.612808 325.341461,91.551773 316.812073,89.588684 
	C315.844177,89.365913 314.863556,89.091713 313.881073,89.056084 
	C307.096954,88.810104 301.856110,91.578178 298.685883,97.583946 
	C295.621887,103.388412 296.039215,109.240211 300.001160,114.496727 
	C304.074860,119.901543 309.651123,121.974380 316.327087,120.560043 
	C325.687927,118.576904 328.984344,121.195152 328.996368,130.802841 
	C329.004517,137.301117 328.998627,143.799423 329.008148,151.259338 
M142.037903,190.582916 
	C140.249512,199.156738 138.461136,207.730560 136.527222,217.002106 
	C150.187775,217.002106 162.809937,216.992752 175.432083,217.005188 
	C184.704559,217.014328 187.513031,220.491211 185.497635,229.417480 
	C183.983841,236.122147 186.512207,242.718170 192.041840,246.490173 
	C197.277969,250.061920 204.693115,250.065414 209.932983,246.498596 
	C215.468460,242.730545 217.998352,236.151108 216.494095,229.435181 
	C214.489380,220.484818 217.284378,217.019974 226.546524,217.004593 
	C233.967804,216.992264 241.389114,217.002106 248.644562,217.002106 
	C248.644562,211.233017 248.644562,206.172318 248.644562,201.169907 
	C230.516907,199.226242 218.305527,187.702606 217.098221,171.606995 
	C216.516769,163.855255 218.490204,156.759293 223.012375,150.417999 
	C229.318253,141.575439 238.305893,137.599503 248.730652,136.746719 
	C248.730652,126.059029 248.730652,115.787361 248.730652,105.083847 
	C243.164520,105.919571 237.838455,106.338684 232.699280,107.550446 
	C187.372559,118.238052 157.319656,145.814728 142.037903,190.582916 
M317.314270,409.000000 
	C326.873322,408.968628 328.994354,406.833832 328.999664,397.234894 
	C329.001587,393.738159 329.029663,390.241089 328.993225,386.744720 
	C328.921234,379.836182 326.176819,377.050964 319.294037,377.011963 
	C310.802216,376.963837 302.309875,377.000031 293.817780,377.000031 
	C261.014923,377.000000 228.212067,376.992004 195.409210,377.006012 
	C187.584702,377.009338 185.031509,379.622253 185.002258,387.534271 
	C184.989319,391.030975 184.994278,394.527771 185.001114,398.024506 
	C185.017838,406.562744 187.436356,408.995911 195.972733,408.997253 
	C236.102112,409.003510 276.231506,409.000000 317.314270,409.000000 
M222.357101,464.081238 
	C227.008240,469.561615 232.880280,472.813110 240.095398,472.929535 
	C251.414825,473.112183 262.744476,473.187225 274.060394,472.916168 
	C285.781372,472.635376 295.915771,463.360046 296.759979,451.689575 
	C297.391479,442.959839 296.884583,434.147797 296.884583,425.216644 
	C291.503540,425.216644 286.436554,425.216644 280.985870,425.216644 
	C280.985870,433.214447 281.051117,441.000549 280.960510,448.784821 
	C280.909088,453.202850 278.494873,456.077087 274.224304,456.827148 
	C270.386932,457.501160 267.295959,455.818939 265.818939,452.118439 
	C265.168671,450.489349 265.056183,448.569885 265.035767,446.778412 
	C264.953186,439.536835 265.001495,432.293732 265.001495,425.368042 
	C259.191772,425.368042 254.116074,425.368042 248.987030,425.368042 
	C248.987030,433.395752 249.022980,441.054382 248.972748,448.712463 
	C248.945251,452.903778 246.759674,456.217621 242.778778,456.545319 
	C240.109436,456.765015 236.857727,455.113220 234.616943,453.346954 
	C233.313202,452.319214 233.117004,449.420929 233.069016,447.349335 
	C232.897308,439.938599 233.001755,432.521484 233.001755,425.342285 
	C227.245270,425.342285 222.173370,425.342285 216.998795,425.342285 
	C216.998795,433.003937 217.076599,440.323578 216.974197,447.640656 
	C216.892136,453.502686 218.364639,458.809387 222.357101,464.081238 
z"/>
<path fill="#FADA75" opacity="1.000000" stroke="none" 
	d="
M190.977539,263.317017 
	C213.379730,268.889008 229.440872,257.375519 233.412338,233.167740 
	C238.346359,233.167740 243.312317,233.167740 249.001724,233.167740 
	C249.001724,240.345825 248.998337,247.591965 249.002533,254.838104 
	C249.008377,264.898102 252.117050,267.458405 261.777344,265.368347 
	C268.119965,263.996094 274.689819,266.593506 278.407104,271.942932 
	C282.008850,277.126099 282.082214,284.565735 278.583405,289.822723 
	C274.892487,295.368317 268.187347,298.019379 261.576447,296.546936 
	C252.500076,294.525391 249.012985,297.236511 249.005890,306.377991 
	C248.991943,324.352386 249.001801,342.326782 249.001801,360.651245 
	C238.470322,360.651245 228.074722,360.651245 216.998016,360.651245 
	C216.998016,355.765533 216.843918,350.672913 217.041794,345.594025 
	C217.235474,340.622833 215.156113,337.579834 210.592789,335.547180 
	C170.336670,317.615845 146.328979,286.866272 138.460175,243.527664 
	C137.867691,240.264496 137.680283,236.927750 137.268127,233.304993 
	C147.834885,233.304993 158.240997,233.304993 168.772568,233.304993 
	C170.079651,247.630356 176.764648,258.032623 190.977539,263.317017 
z"/>
<path fill="#B2DD89" opacity="1.000000" stroke="none" 
	d="
M264.998413,331.001007 
	C264.998413,324.856018 264.998413,319.210693 264.998413,313.235260 
	C275.379395,312.431274 284.117828,308.666779 290.427124,300.317596 
	C295.233887,293.956696 297.399292,286.765564 296.922119,278.818756 
	C295.944824,262.542450 283.499939,250.652603 265.326843,248.847168 
	C265.326843,243.825073 265.326843,238.754593 265.326843,232.998245 
	C272.597382,232.998245 280.017975,233.007614 287.438538,232.995865 
	C296.714630,232.981186 299.528534,229.503525 297.504364,220.584854 
	C295.983490,213.883789 298.503693,207.283951 304.024567,203.509811 
	C309.236816,199.946640 316.686615,199.931091 321.914856,203.472458 
	C327.445099,207.218399 330.005615,213.844009 328.504547,220.524231 
	C326.487152,229.502319 329.266357,232.985092 338.498047,232.994888 
	C351.119507,233.008286 363.740967,232.998230 376.706024,232.998230 
	C374.920227,257.153931 366.993713,278.477722 352.717010,297.365540 
	C340.017151,314.167175 324.001160,326.930969 304.510468,335.026917 
	C298.888611,337.362061 296.478638,340.856262 296.935181,346.873962 
	C297.273376,351.331543 297.001678,355.835327 297.001678,360.659424 
	C286.421875,360.659424 276.029358,360.659424 264.998413,360.659424 
	C264.998413,351.012970 264.998413,341.256836 264.998413,331.001007 
z"/>
<path fill="#81BBF2" opacity="1.000000" stroke="none" 
	d="
M329.003571,150.778534 
	C328.998627,143.799423 329.004517,137.301117 328.996368,130.802841 
	C328.984344,121.195152 325.687927,118.576904 316.327087,120.560043 
	C309.651123,121.974380 304.074860,119.901543 300.001160,114.496727 
	C296.039215,109.240211 295.621887,103.388412 298.685883,97.583946 
	C301.856110,91.578178 307.096954,88.810104 313.881073,89.056084 
	C314.863556,89.091713 315.844177,89.365913 316.812073,89.588684 
	C325.341461,91.551773 328.979584,88.612808 328.993530,79.683487 
	C329.011230,68.353165 328.997955,57.022789 328.997986,45.692436 
	C328.997986,44.385845 328.997955,43.079254 328.997955,41.765362 
	C380.041901,43.127998 435.938873,86.264374 440.581177,152.649567 
	C439.625732,152.765991 438.660431,152.983276 437.694550,152.985886 
	C428.224945,153.011475 418.755249,153.001312 409.347961,153.001312 
	C406.524261,132.989517 394.289246,121.015228 377.012939,121.008636 
	C359.691864,121.002037 347.305542,133.118347 344.681519,152.997543 
	C340.273438,152.997543 335.800751,153.081680 331.337006,152.919296 
	C330.541626,152.890381 329.783478,151.838745 329.003571,150.778534 
z"/>
<path fill="#F16573" opacity="1.000000" stroke="none" 
	d="
M142.134567,190.194077 
	C157.319656,145.814728 187.372559,118.238052 232.699280,107.550446 
	C237.838455,106.338684 243.164520,105.919571 248.730652,105.083847 
	C248.730652,115.787361 248.730652,126.059029 248.730652,136.746719 
	C238.305893,137.599503 229.318253,141.575439 223.012375,150.417999 
	C218.490204,156.759293 216.516769,163.855255 217.098221,171.606995 
	C218.305527,187.702606 230.516907,199.226242 248.644562,201.169907 
	C248.644562,206.172318 248.644562,211.233017 248.644562,217.002106 
	C241.389114,217.002106 233.967804,216.992264 226.546524,217.004593 
	C217.284378,217.019974 214.489380,220.484818 216.494095,229.435181 
	C217.998352,236.151108 215.468460,242.730545 209.932983,246.498596 
	C204.693115,250.065414 197.277969,250.061920 192.041840,246.490173 
	C186.512207,242.718170 183.983841,236.122147 185.497635,229.417480 
	C187.513031,220.491211 184.704559,217.014328 175.432083,217.005188 
	C162.809937,216.992752 150.187775,217.002106 136.527222,217.002106 
	C138.461136,207.730560 140.249512,199.156738 142.134567,190.194077 
z"/>
<path fill="#425B72" opacity="1.000000" stroke="none" 
	d="
M316.837585,409.000000 
	C276.231506,409.000000 236.102112,409.003510 195.972733,408.997253 
	C187.436356,408.995911 185.017838,406.562744 185.001114,398.024506 
	C184.994278,394.527771 184.989319,391.030975 185.002258,387.534271 
	C185.031509,379.622253 187.584702,377.009338 195.409210,377.006012 
	C228.212067,376.992004 261.014923,377.000000 293.817780,377.000031 
	C302.309875,377.000031 310.802216,376.963837 319.294037,377.011963 
	C326.176819,377.050964 328.921234,379.836182 328.993225,386.744720 
	C329.029663,390.241089 329.001587,393.738159 328.999664,397.234894 
	C328.994354,406.833832 326.873322,408.968628 316.837585,409.000000 
z"/>
<path fill="#ECEAF0" opacity="1.000000" stroke="none" 
	d="
M222.146301,463.787781 
	C218.364639,458.809387 216.892136,453.502686 216.974197,447.640656 
	C217.076599,440.323578 216.998795,433.003937 216.998795,425.342285 
	C222.173370,425.342285 227.245270,425.342285 233.001755,425.342285 
	C233.001755,432.521484 232.897308,439.938599 233.069016,447.349335 
	C233.117004,449.420929 233.313202,452.319214 234.616943,453.346954 
	C236.857727,455.113220 240.109436,456.765015 242.778778,456.545319 
	C246.759674,456.217621 248.945251,452.903778 248.972748,448.712463 
	C249.022980,441.054382 248.987030,433.395752 248.987030,425.368042 
	C254.116074,425.368042 259.191772,425.368042 265.001495,425.368042 
	C265.001495,432.293732 264.953186,439.536835 265.035767,446.778412 
	C265.056183,448.569885 265.168671,450.489349 265.818939,452.118439 
	C267.295959,455.818939 270.386932,457.501160 274.224304,456.827148 
	C278.494873,456.077087 280.909088,453.202850 280.960510,448.784821 
	C281.051117,441.000549 280.985870,433.214447 280.985870,425.216644 
	C286.436554,425.216644 291.503540,425.216644 296.884583,425.216644 
	C296.884583,434.147797 297.391479,442.959839 296.759979,451.689575 
	C295.915771,463.360046 285.781372,472.635376 274.060394,472.916168 
	C262.744476,473.187225 251.414825,473.112183 240.095398,472.929535 
	C232.880280,472.813110 227.008240,469.561615 222.146301,463.787781 
z"/>
</svg>